<mxfile host="app.diagrams.net" modified="2023-11-07T02:01:22.059Z" agent="Mozilla/5.0 (Windows NT 10.0; Win64; x64) AppleWebKit/537.36 (KHTML, like Gecko) Chrome/118.0.0.0 Safari/537.36" version="22.0.8" etag="SlBqzMkMQEmeXpvLOEAe" type="github">
  <diagram name="Page-1" id="h7CvR0iPvSTLlOXNb2U2">
    <mxGraphModel>
      <root>
        <mxCell id="0" />
        <mxCell id="1" parent="0" />
      </root>
    </mxGraphModel>
  </diagram>
</mxfile>
